<?xml version="1.0" encoding="UTF-8"?>
<svg width="5.6654mm" height="2.6996mm" version="1.1" viewBox="0 0 5.6654 2.6996" xmlns="http://www.w3.org/2000/svg"><defs><style>svg{fill:currentColor}</style></defs><g transform="translate(-190.61 -108.42)"><g transform="matrix(.35278 0 0 .35278 190.54 110.97)"><path d="m16.25-3.3438c0.0078 0.13672 0 0.27734-0.03125 0.42188-0.02344 0.13672-0.05469 0.27344-0.09375 0.40625-0.09375 0.3125-0.21484 0.61719-0.35938 0.90625-0.04297 0.085937-0.10156 0.16406-0.17188 0.23438-0.07422 0.074219-0.14844 0.13672-0.21875 0.1875-0.11719 0.09375-0.23438 0.17969-0.35938 0.25-0.11719 0.074219-0.22656 0.15234-0.32812 0.23438-0.08594 0.054687-0.18359 0.054687-0.29688 0-0.13672-0.0625-0.26172-0.125-0.375-0.1875-0.11719-0.070313-0.22656-0.15625-0.32812-0.25-0.04297-0.03125-0.08594-0.03125-0.125 0-0.05469 0.03125-0.10156 0.0625-0.14062 0.09375-0.04297 0.023437-0.07813 0.054687-0.10938 0.09375-0.09375 0.09375-0.19531 0.11719-0.29688 0.0625-0.13672-0.070313-0.26172-0.14062-0.375-0.20312-0.10547-0.070312-0.19531-0.17188-0.26562-0.29688-0.04297-0.0625-0.10156-0.066406-0.17188-0.015625-0.17969 0.11719-0.35938 0.21875-0.54688 0.3125-0.1875 0.085938-0.38672 0.14844-0.59375 0.1875-0.05469 0.011719-0.09375 0.027344-0.125 0.046875-0.03125 0.011719-0.05469 0.054687-0.0625 0.125-0.02344 0.19922-0.10938 0.37109-0.26562 0.51562-0.15625 0.14844-0.33594 0.22266-0.53125 0.23438-0.0625 0-0.125 0.0039062-0.1875 0.015625-0.054687 0.019531-0.10547 0.0625-0.15625 0.125-0.11719 0.125-0.24609 0.19141-0.39062 0.20312-0.14844 0.019531-0.29688 0.003906-0.45312-0.046875-0.085937-0.011719-0.15234-0.015625-0.20312-0.015625-0.054688 0.007813-0.10938 0.035156-0.17188 0.078125-0.054687 0.019531-0.10547 0.035156-0.15625 0.046875-0.054687 0.007813-0.10547 0.007813-0.15625 0-0.09375-0.011719-0.1875-0.027344-0.28125-0.046875-0.085937-0.023438-0.17188-0.042969-0.26562-0.0625-0.074219-0.011719-0.13281-0.011719-0.17188 0-0.09375 0.0625-0.19531 0.097656-0.29688 0.10938-0.09375 0.007813-0.19531-0.007813-0.29688-0.046875-0.10547-0.03125-0.19922-0.085938-0.28125-0.15625-0.074219-0.0625-0.13281-0.14062-0.17188-0.23438-0.023438-0.03125-0.042969-0.0625-0.0625-0.09375-0.023438-0.039063-0.042969-0.078125-0.0625-0.10938-0.011719 0.011719-0.015625 0.03125-0.015625 0.0625-0.09375 0.011719-0.18359 0.03125-0.26562 0.0625-0.074219 0.023438-0.15625 0.03125-0.25 0.03125s-0.17969-0.03125-0.25-0.09375c-0.0625-0.0625-0.10547-0.13281-0.125-0.21875-0.042969-0.070312-0.070312-0.15625-0.078125-0.25-0.011719-0.09375-0.023437-0.19141-0.03125-0.29688-0.085937 0-0.16797-0.015625-0.25-0.046875-0.074219-0.03125-0.13672-0.085938-0.1875-0.17188-0.042969-0.0625-0.074219-0.13281-0.09375-0.21875-0.023437-0.09375-0.046875-0.19141-0.078125-0.29688-0.023438 0-0.058594-0.00391-0.10938-0.015625-0.042969-0.007813-0.089844-0.019531-0.14062-0.03125-0.21875-0.03125-0.32812-0.14844-0.32812-0.35938 0-0.082031-0.039063-0.13281-0.10938-0.15625-0.10547-0.039062-0.21094-0.078125-0.3125-0.10938-0.09375-0.03125-0.1875-0.066406-0.28125-0.10938-0.0625-0.03125-0.10938-0.035156-0.14062-0.015625-0.023437 0.023437-0.046875 0.058594-0.078125 0.10938-0.074219 0.19922-0.15234 0.40234-0.23438 0.60938-0.085937 0.19922-0.17188 0.39844-0.26562 0.59375-0.042969 0.125-0.089844 0.25-0.14062 0.375-0.0625 0.125-0.16797 0.18359-0.3125 0.17188-0.19922-0.019531-0.38672-0.066406-0.5625-0.14062-0.17969-0.070313-0.35547-0.14453-0.53125-0.21875-0.03125-0.019531-0.058594-0.039063-0.078125-0.0625-0.011719-0.019531-0.027344-0.035156-0.046875-0.046875-0.21094-0.28125-0.38281-0.57812-0.51562-0.89062-0.125-0.3125-0.21484-0.64062-0.26562-0.98438-0.054687-0.25-0.054687-0.49219 0-0.73438 0.050781-0.25 0.125-0.48828 0.21875-0.71875 0.1875-0.51953 0.45703-0.96094 0.8125-1.3281 0.35156-0.375 0.76562-0.70312 1.2344-0.98438 0.15625-0.09375 0.3125-0.17969 0.46875-0.26562 0.15625-0.082031 0.3125-0.16406 0.46875-0.25 0.03125-0.00781 0.066406-0.00781 0.10938 0 0.039063 0 0.078125 0.00781 0.10938 0.015625 0.19531 0.09375 0.39453 0.19531 0.59375 0.29688 0.19531 0.09375 0.39453 0.1875 0.59375 0.28125 0.070312 0.03125 0.14062 0.078125 0.20312 0.14062 0.0625 0.054687 0.10938 0.11719 0.14062 0.1875 0.00781 0.0625 0.035156 0.12109 0.078125 0.17188 0.050781 0.054688 0.10938 0.09375 0.17188 0.125s0.125 0.058594 0.1875 0.078125c0.070312 0.023437 0.13281 0.027344 0.1875 0.015625 0.019531-0.019531 0.039062-0.03125 0.0625-0.03125 0.019531-0.00781 0.035156-0.023438 0.046875-0.046875 0.39453-0.375 0.83203-0.46875 1.3125-0.28125 0.17578 0.0625 0.33594 0.078125 0.48438 0.046875 0.14453-0.03125 0.28906-0.082031 0.4375-0.15625 0.11328-0.050781 0.23438-0.035156 0.35938 0.046875 0.09375 0.0625 0.19141 0.125 0.29688 0.1875 0.10156 0.0625 0.21094 0.125 0.32812 0.1875 0.00781 0.011719 0.035156 0.015625 0.078125 0.015625 0.11328-0.00781 0.21094 0.00781 0.29688 0.046875 0.09375 0.042969 0.1875 0.10156 0.28125 0.17188 0.14453 0.13672 0.29688 0.26172 0.45312 0.375 0.15625 0.10547 0.31641 0.21484 0.48438 0.32812 0.05078 0.03125 0.09375 0.046875 0.125 0.046875 0.03906-0.00781 0.08203-0.046875 0.125-0.10938 0.03906-0.070313 0.09375-0.12891 0.15625-0.17188 0.0625-0.050781 0.11719-0.097656 0.17188-0.14062 0.34375-0.23828 0.6875-0.47266 1.0312-0.70312 0.34375-0.23828 0.6875-0.47656 1.0312-0.71875 0.0625-0.039062 0.11719-0.066406 0.17188-0.078125 0.05078-0.00781 0.10938 0.011719 0.17188 0.0625 0.28125 0.17969 0.55078 0.35938 0.8125 0.54688 0.25781 0.17969 0.49219 0.38672 0.70312 0.625 0.28125 0.34375 0.50391 0.70312 0.67188 1.0781 0.17578 0.375 0.28906 0.78906 0.34375 1.2344zm-12.172-0.10938c0.11328-0.23828 0.22656-0.47266 0.34375-0.70312 0.11328-0.23828 0.19141-0.5 0.23438-0.78125 0.03125-0.16406 0.0625-0.33203 0.09375-0.5 0.039062-0.17578 0.082031-0.35938 0.125-0.54688-0.023438-0.019531-0.039062-0.039063-0.046875-0.0625-0.011719-0.019531-0.023437-0.046875-0.03125-0.078125-0.15625-0.11328-0.28906-0.14844-0.39062-0.10938-0.10547 0.03125-0.17188 0.14844-0.20312 0.34375v0.046875c0 0.023438-0.00781 0.039062-0.015625 0.046875-0.03125 0.09375-0.0625 0.19531-0.09375 0.29688-0.023438 0.09375-0.046875 0.18359-0.078125 0.26562-0.054687 0.1875-0.10938 0.37109-0.17188 0.54688-0.054688 0.16797-0.10547 0.33984-0.15625 0.51562-0.054688 0.15625-0.10156 0.32031-0.14062 0.48438-0.03125 0.15625-0.074219 0.3125-0.125 0.46875-0.074219 0.17969-0.058594 0.29297 0.046875 0.34375 0.13281 0.085938 0.25391 0.046875 0.35938-0.10938 0.050781-0.070313 0.09375-0.14844 0.125-0.23438 0.039063-0.082031 0.082031-0.16016 0.125-0.23438zm0.76562 1.2656c0.019531-0.070312 0.019531-0.13281 0-0.1875-0.023438-0.16406-0.10547-0.25391-0.25-0.26562-0.125-0.007813-0.21484 0.015625-0.26562 0.078125-0.042969 0.0625-0.070313 0.17188-0.078125 0.32812 0.00781 0.03125 0.015625 0.074219 0.015625 0.125 0 0.042969 0.00781 0.074219 0.03125 0.09375 0.125 0.09375 0.25391 0.12109 0.39062 0.078125 0.070312-0.00781 0.11328-0.039062 0.125-0.09375 0.019531-0.050781 0.03125-0.10156 0.03125-0.15625zm0.21875 0.92188c0.082031 0.023437 0.16406 0.027344 0.25 0.015625 0.09375-0.00781 0.14844-0.03125 0.17188-0.0625 0.070313-0.11328 0.12891-0.22656 0.17188-0.34375-0.011719 0-0.023438-0.00391-0.03125-0.015625 0-0.00781-0.00781-0.015625-0.015625-0.015625v-0.10938c-0.011719-0.10156-0.054687-0.1875-0.125-0.25-0.074219-0.0625-0.15625-0.085937-0.25-0.078125-0.09375 0-0.16797 0.03125-0.21875 0.09375-0.054687 0.0625-0.085937 0.15234-0.09375 0.26562 0 0.042969-0.00781 0.085937-0.015625 0.125v0.10938c0 0.10547 0.050781 0.19531 0.15625 0.26562zm0.76562 0.92188c0.082031 0.011719 0.15625-0.015625 0.21875-0.078125s0.097656-0.13281 0.10938-0.21875c0-0.039063-0.015625-0.082031-0.046875-0.125-0.03125-0.050781-0.070313-0.097656-0.10938-0.14062-0.03125-0.039062-0.070312-0.070312-0.10938-0.09375-0.042969-0.03125-0.085937-0.046875-0.125-0.046875-0.085937 0-0.15625 0.03125-0.21875 0.09375-0.054687 0.054687-0.078125 0.13672-0.078125 0.25 0 0.10547 0.03125 0.19531 0.09375 0.26562 0.0625 0.0625 0.14844 0.09375 0.26562 0.09375zm4.4375-0.35938c0.01953-0.070313 0.02344-0.14844 0.01563-0.23438 0-0.082031-0.01563-0.15625-0.04687-0.21875-0.09375-0.17578-0.19922-0.34375-0.3125-0.5-0.10548-0.16406-0.19923-0.34375-0.28126-0.53125-0.15625-0.3125-0.30469-0.62891-0.4375-0.95312-0.13672-0.32031-0.27734-0.64844-0.42188-0.98438-0.011719-0.007812-0.027344-0.023438-0.046875-0.046875-0.023437-0.019531-0.039063-0.03125-0.046875-0.03125-0.09375-0.019531-0.18359-0.039063-0.26562-0.0625-0.085937-0.019531-0.17188-0.035156-0.26562-0.046875-0.042969-0.007812-0.089844-0.015625-0.14062-0.015625-0.042969 0-0.078125-0.003906-0.10938-0.015625-0.042969-0.019531-0.078125-0.023438-0.10938-0.015625-0.03125 0.011719-0.0625 0.03125-0.09375 0.0625-0.14844 0.125-0.30469 0.21094-0.46875 0.25-0.15625 0.042969-0.32422 0.039063-0.5-0.015625-0.074219-0.039062-0.14844-0.082031-0.21875-0.125-0.074219-0.039062-0.14844-0.078125-0.21875-0.10938-0.0625-0.03125-0.12109-0.066406-0.17188-0.10938-0.042969-0.050781-0.0625-0.11328-0.0625-0.1875-0.011719-0.082031 0.007812-0.14062 0.0625-0.17188 0.050781-0.039063 0.11328-0.078125 0.1875-0.10938 0.30078-0.09375 0.54688-0.25781 0.73438-0.5 0.070313-0.09375 0.14844-0.16016 0.23438-0.20312 0.09375-0.050781 0.19531-0.066406 0.3125-0.046875 0.070312 0 0.14062-0.00391 0.20312-0.015625 0.070313-0.00781 0.14453-0.019531 0.21875-0.03125 0.125-0.00781 0.25-0.035156 0.375-0.078125 0.125-0.050781 0.25391-0.11328 0.39062-0.1875-0.13672-0.039062-0.26172-0.097656-0.375-0.17188-0.074219-0.03125-0.15625-0.03125-0.25 0-0.14844 0.074219-0.30469 0.14062-0.46875 0.20312-0.16797 0.0625-0.33984 0.074219-0.51562 0.03125-0.15625-0.03125-0.30469-0.03125-0.4375 0-0.13672 0.03125-0.27734 0.074219-0.42188 0.125-0.074219 0.03125-0.14844 0.058594-0.21875 0.078125-0.0625 0.011719-0.13672 0.007813-0.21875-0.015625-0.054688-0.007812-0.11719-0.015625-0.1875-0.015625-0.074219 0-0.13281 0.046875-0.17188 0.14062-0.074219 0.14844-0.14844 0.29688-0.21875 0.45312-0.074219 0.14844-0.14844 0.29297-0.21875 0.4375-0.13672 0.25-0.27344 0.49609-0.40625 0.73438-0.125 0.24219-0.25781 0.48438-0.39062 0.73438-0.054688 0.09375-0.078125 0.16797-0.078125 0.21875 0.00781 0.054687 0.0625 0.10938 0.15625 0.17188 0.03125 0.011719 0.066406 0.023438 0.10938 0.03125 0.050781 0 0.09375-0.00391 0.125-0.015625 0.070312-0.00781 0.14062 0 0.20312 0.03125 0.070313 0.023437 0.12891 0.070313 0.17188 0.14062 0.03125 0.054688 0.054688 0.10547 0.078125 0.15625 0.03125 0.042969 0.054687 0.09375 0.078125 0.15625 0.050781 0.011719 0.10938 0.015625 0.17188 0.015625 0.070313 0 0.14062 0.023437 0.20312 0.0625 0.0625 0.03125 0.125 0.074219 0.1875 0.125 0.070312 0.042969 0.11328 0.089844 0.125 0.14062 0.039062 0.11719 0.066406 0.24219 0.078125 0.375 0.019531 0.125 0.00391 0.25781-0.046875 0.39062 0.125 0.03125 0.22266 0.089844 0.29688 0.17188 0.082031 0.074219 0.15625 0.16406 0.21875 0.26562 0.03125 0.042969 0.046875 0.089844 0.046875 0.14062v0.15625 0.078125 0.046875c0.050781 0.0625 0.10156 0.13281 0.15625 0.20312 0.0625 0.0625 0.12891 0.12109 0.20312 0.17188 0.039063 0.0078125 0.09375 0.015625 0.15625 0.015625h0.17188c-0.011719-0.042969-0.015625-0.082031-0.015625-0.125 0-0.050781-0.00781-0.097656-0.015625-0.14062-0.011719-0.019531-0.023438-0.039062-0.03125-0.0625-0.011719-0.03125-0.015625-0.0625-0.015625-0.09375 0-0.019531 0.00391-0.046875 0.015625-0.078125 0.00781-0.03125 0.019531-0.050781 0.03125-0.0625 0.039062-0.019531 0.09375-0.015625 0.15625 0.015625 0.019531 0.011719 0.035156 0.027344 0.046875 0.046875 0.019531 0.023437 0.035156 0.046875 0.046875 0.078125 0.082031 0.085938 0.17188 0.16406 0.26562 0.23438 0.10156 0.0625 0.21875 0.10156 0.34375 0.10938 0.15625 0.023438 0.24219-0.039062 0.26562-0.1875 0.00781-0.070312 0.00391-0.13281-0.015625-0.1875-0.023437-0.0625-0.058594-0.125-0.10938-0.1875-0.03125-0.039062-0.042969-0.070312-0.03125-0.09375 0.00781-0.03125 0.03125-0.066406 0.0625-0.10938 0.039062-0.039063 0.078125-0.050781 0.10938-0.03125 0.03125 0.011719 0.0625 0.03125 0.09375 0.0625 0.082031 0.085937 0.16406 0.16797 0.25 0.25 0.082031 0.074219 0.16406 0.15625 0.25 0.25 0.082031 0.074219 0.17188 0.12109 0.26562 0.14062 0.09375 0.023438 0.1875 0 0.28125-0.0625 0.050781-0.03125 0.082031-0.0625 0.09375-0.09375 0.007812-0.03125-0.007812-0.070312-0.046875-0.125-0.13672-0.14453-0.22656-0.30469-0.26562-0.48438-0.03125-0.17578-0.046875-0.35938-0.046875-0.54688 0-0.03125 0.00781-0.050781 0.03125-0.0625 0.03125-0.019531 0.054687-0.046875 0.078125-0.078125 0.00781 0.03125 0.023438 0.0625 0.046875 0.09375 0.019531 0.023437 0.03125 0.039063 0.03125 0.046875-0.023437 0.15625-0.00781 0.29688 0.046875 0.42188 0.050781 0.125 0.125 0.23438 0.21875 0.32812 0.050781 0.0625 0.10938 0.12109 0.17188 0.17188 0.070313 0.042969 0.14062 0.070313 0.20312 0.078125 0.082031 0 0.15625-0.023438 0.21875-0.078125 0.07031-0.050781 0.11719-0.11328 0.14062-0.1875zm1.9688-1.7344c0.10156-0.09375 0.16406-0.17188 0.1875-0.23438 0.01953-0.0625 0.0039-0.15625-0.04687-0.28125-0.02344-0.039063-0.03906-0.078125-0.04687-0.10938-0.01172-0.039062-0.02344-0.078125-0.03125-0.10938-0.13672-0.20703-0.26562-0.41016-0.39062-0.60938-0.11719-0.20703-0.23438-0.42188-0.35938-0.64062-0.02344-0.039063-0.05469-0.082031-0.09375-0.125-0.03125-0.039063-0.07031-0.082031-0.10938-0.125-0.04297-0.050781-0.10938-0.0625-0.20312-0.03125-0.0625 0.011719-0.13281 0.015625-0.20312 0.015625-0.0625 0-0.12109-0.00391-0.17188-0.015625-0.21876-0.09375-0.4336-0.19141-0.64064-0.29688-0.19922-0.10156-0.38281-0.23438-0.54688-0.39062-0.09375-0.09375-0.1875-0.14844-0.28125-0.17188-0.11719-0.039062-0.24219-0.054688-0.375-0.046875-0.15625 0.011719-0.3125 0.039063-0.46875 0.078125-0.14844 0.03125-0.29297 0.042969-0.4375 0.03125-0.19922-0.007812-0.375 0.023438-0.53125 0.09375-0.14844 0.0625-0.27734 0.17969-0.39062 0.34375-0.042969 0.074219-0.10156 0.13281-0.17188 0.17188-0.074219 0.03125-0.14844 0.058594-0.21875 0.078125-0.054687 0.011719-0.10547 0.023438-0.15625 0.03125-0.054687 0.011719-0.10156 0.023438-0.14062 0.03125-0.042969 0.023438-0.074219 0.046875-0.09375 0.078125-0.011719 0.03125-0.023438 0.054687-0.03125 0.0625 0 0.03125 0.00781 0.0625 0.03125 0.09375 0.019531 0.023437 0.035156 0.046875 0.046875 0.078125 0.03125 0.011719 0.054687 0.015625 0.078125 0.015625h0.09375c0.17578 0 0.33594-0.03125 0.48438-0.09375 0.15625-0.070313 0.30078-0.16406 0.4375-0.28125 0.070313-0.050781 0.14062-0.078125 0.20312-0.078125 0.03125 0 0.066406 0.011719 0.10938 0.03125 0.050781 0.023438 0.097656 0.03125 0.14062 0.03125 0.17578-0.03125 0.34766-0.0625 0.51562-0.09375 0.17578-0.03125 0.35156-0.054688 0.53125-0.078125h0.0625c0.03125 0 0.050781 0.011719 0.0625 0.03125 0.00781 0.011719 0.015625 0.027344 0.015625 0.046875v0.09375c0 0.042969-0.00781 0.089844-0.015625 0.14062-0.011719 0.042969-0.00781 0.085937 0.015625 0.125 0.00781 0.0625 0.03125 0.125 0.0625 0.1875 0.03125 0.054687 0.054688 0.11719 0.078125 0.1875 0.0625 0.21094 0.17969 0.37109 0.35938 0.48438 0.039062 0.03125 0.070312 0.0625 0.09375 0.09375 0.019531 0.023438 0.046875 0.046875 0.078125 0.078125 0.13281 0.13672 0.26953 0.25781 0.40625 0.35938 0.13281 0.10547 0.30469 0.17188 0.51562 0.20312 0.01953 0.011719 0.04687 0.027344 0.07813 0.046875 0.03906 0.011719 0.07813 0.023438 0.10938 0.03125v0.0625c-0.03125 0.011719-0.05859 0.023438-0.07813 0.03125-0.02344 0.011719-0.04687 0.023438-0.07813 0.03125-0.04297 0.03125-0.08594 0.0625-0.125 0.09375-0.04297 0.023438-0.07031 0.046875-0.07813 0.078125-0.05469 0.13672-0.09375 0.28125-0.125 0.4375-0.02344 0.14844-0.0078 0.29688 0.04687 0.45312 0.03125 0.09375 0.08594 0.16797 0.17188 0.21875 0.09375 0.042969 0.1875 0.046875 0.28125 0.015625 0.16406-0.082031 0.32031-0.17188 0.46875-0.26562 0.14453-0.09375 0.28516-0.20312 0.42188-0.32812 0.08203-0.070313 0.16016-0.14062 0.23438-0.20312 0.07031-0.0625 0.14453-0.125 0.21875-0.1875zm1.3594 0.67188c0.05078-0.019531 0.09375-0.050781 0.125-0.09375 0.03906-0.050781 0.05469-0.125 0.04687-0.21875 0-0.00781-0.0078-0.03125-0.01563-0.0625 0-0.03125-0.01172-0.050781-0.03125-0.0625-0.074209-0.1875-0.15233-0.36719-0.23436-0.54688-0.085937-0.17578-0.17188-0.34766-0.26562-0.51562-0.1875-0.33203-0.38281-0.66016-0.57812-0.98438-0.1875-0.32031-0.38281-0.64062-0.57812-0.95312-0.054688-0.09375-0.10938-0.14844-0.17188-0.17188-0.0625-0.019531-0.14062-0.003906-0.23438 0.046875-0.03125 0.011719-0.0625 0.027344-0.09375 0.046875-0.02344 0.011719-0.04297 0.027344-0.0625 0.046875-0.10547 0.054687-0.16406 0.10547-0.17188 0.15625-0.01172 0.054687 0.01953 0.12109 0.09375 0.20312 0.08203 0.09375 0.16406 0.1875 0.25 0.28125 0.09375 0.09375 0.17188 0.1875 0.23438 0.28125 0.125 0.21094 0.23828 0.41797 0.34375 0.625 0.11328 0.19922 0.23828 0.40234 0.375 0.60938 0.11328 0.16797 0.20312 0.34375 0.26562 0.53125 0.0625 0.17969 0.11719 0.36719 0.17188 0.5625 0.03125 0.16797 0.07813 0.26562 0.14062 0.29688 0.0625 0.023438 0.17188 0.00781 0.32812-0.046875 0.01953 0 0.03906-0.00781 0.0625-0.03125z"/></g></g></svg>
