<?xml version="1.0" encoding="UTF-8"?>
<svg width="3.7836mm" height="2.9771mm" version="1.1" viewBox="0 0 3.7836 2.9771" xmlns="http://www.w3.org/2000/svg"><defs><style>svg{fill:currentColor}</style></defs><g transform="translate(-244.99 -227.16)"><g transform="matrix(.35278 0 0 .35278 244.91 229.64)"><path d="m10.391-5.8438c0.050781 0.023438 0.10938 0.054688 0.17188 0.09375 0.0625 0.03125 0.11719 0.070312 0.17188 0.10938 0.07031 0.054687 0.14062 0.10547 0.20312 0.15625-0.04297 0.03125-0.10156 0.078125-0.17188 0.14062-0.0625 0.0625-0.13281 0.125-0.20312 0.1875-0.08594 0.074219-0.17188 0.14844-0.26562 0.21875-0.02344 0.042969-0.04297 0.085938-0.0625 0.125-0.03125 0.042969-0.07031 0.089844-0.10938 0.14062-0.04297 0.054687-0.08984 0.11719-0.14062 0.1875-0.03125 0.054687-0.058594 0.10547-0.078125 0.15625-0.011719 0.042969-0.023438 0.089844-0.03125 0.14062 0 0.042969 0.019531 0.070312 0.0625 0.078125 0.03125 0.011719 0.035156 0.039063 0.015625 0.078125-0.023437 0.03125-0.054687 0.070312-0.09375 0.10938l-0.078125 0.078125c-0.023438 0.023438-0.015625 0.03125 0.015625 0.03125 0.03125-0.019531 0.046875-0.023438 0.046875-0.015625 0.00781 0.011719 0.00391 0.027344-0.015625 0.046875-0.011719 0.011719-0.03125 0.027344-0.0625 0.046875-0.023437 0.023437-0.046875 0.039063-0.078125 0.046875-0.054688 0-0.089844 0.015625-0.10938 0.046875-0.023437 0.03125-0.03125 0.074219-0.03125 0.125 0 0.042969 0.00781 0.085937 0.03125 0.125 0.03125 0.042969 0.066406 0.070313 0.10938 0.078125 0.050781 0.042969 0.09375 0.070312 0.125 0.078125 0.039062 0.011719 0.070312 0.054687 0.09375 0.125v0.15625c0.00781 0.054687 0.015625 0.10547 0.015625 0.15625 0.00781 0.042969 0.00781 0.085937 0 0.125 0 0.03125-0.015625 0.046875-0.046875 0.046875-0.023438 0-0.03125 0.027344-0.03125 0.078125 0 0.042969 0.00781 0.09375 0.03125 0.15625 0.019531 0.0625 0.035156 0.12109 0.046875 0.17188 0.019531 0.054688 0.039063 0.085938 0.0625 0.09375 0.019531 0.011719 0.00391 0.03125-0.046875 0.0625-0.054688 0.023438-0.11719 0.054688-0.1875 0.09375-0.074219 0.03125-0.15234 0.070312-0.23438 0.10938-0.074219 0.042969-0.12109 0.089844-0.14062 0.14062-0.042969 0.054688-0.10156 0.10547-0.17188 0.15625-0.074219 0.054688-0.15234 0.10156-0.23438 0.14062-0.085938 0.03125-0.16406 0.058594-0.23438 0.078125-0.074219 0.023438-0.12109 0.027344-0.14062 0.015625-0.054688 0-0.078125 0.042969-0.078125 0.125 0 0.074219 0.023437 0.125 0.078125 0.15625 0.019531 0.023437 0.054688 0.054687 0.10938 0.09375 0.0625 0.042969 0.11719 0.089844 0.17188 0.14062 0.050781 0.054688 0.09375 0.10547 0.125 0.15625 0.039062 0.042969 0.050781 0.0625 0.03125 0.0625-0.03125 0.023438-0.070312 0.054688-0.10938 0.09375-0.03125 0.042969-0.074219 0.085938-0.125 0.125-0.042969 0.042969-0.089844 0.078125-0.14062 0.10938-0.054688 0.023437-0.10938 0.023437-0.17188 0-0.03125 0.074219-0.058594 0.14844-0.078125 0.21875-0.03125 0.050781-0.0625 0.10156-0.09375 0.15625-0.023438 0.050781-0.039062 0.078125-0.046875 0.078125-0.023437 0.007812-0.078125 0.035156-0.17188 0.078125-0.09375 0.050781-0.19922 0.10156-0.3125 0.15625-0.10547 0.0625-0.20312 0.125-0.29688 0.1875-0.09375 0.070313-0.15625 0.13281-0.1875 0.1875-0.011719 0.03125-0.015625 0.066406-0.015625 0.10938v0.15625c-0.65625 0.13281-1.3594 0.23438-2.1094 0.29688-0.64844 0.050781-1.3867 0.0625-2.2188 0.03125-0.82422-0.023437-1.6875-0.13281-2.5938-0.32812-0.03125-0.16797-0.0625-0.3125-0.09375-0.4375-0.023437-0.11719-0.039063-0.23047-0.046875-0.34375-0.011719-0.10547-0.007812-0.16797 0.015625-0.1875 0.007813-0.023438 0.046875-0.09375 0.10938-0.21875 0.0625-0.13281 0.13281-0.29688 0.21875-0.48438 0.09375-0.1875 0.19141-0.38281 0.29688-0.59375 0.11328-0.20703 0.21875-0.39844 0.3125-0.57812 0.09375-0.1875 0.17578-0.34375 0.25-0.46875 0.082031-0.13281 0.14062-0.21094 0.17188-0.23438 0.070312-0.050781 0.14844-0.082031 0.23438-0.09375 0.09375-0.019531 0.14844-0.066406 0.17188-0.14062 0.03125-0.0625 0.023438-0.15625-0.015625-0.28125-0.042969-0.125-0.085937-0.22656-0.125-0.3125-0.023437-0.039062-0.039063-0.070312-0.046875-0.09375 0-0.019531-0.00781-0.035156-0.015625-0.046875 0-0.019531-0.011719-0.039063-0.03125-0.0625-0.023437-0.019531-0.054687-0.054687-0.09375-0.10938-0.054687-0.039062-0.10156-0.085938-0.14062-0.14062-0.03125-0.0625-0.058594-0.11719-0.078125-0.17188-0.023437-0.050781-0.027344-0.09375-0.015625-0.125 0.00781-0.039062 0.039062-0.054688 0.09375-0.046875 0.050781 0.011719 0.14062 0.023437 0.26562 0.03125 0.125 0.011719 0.25391 0.015625 0.39062 0.015625 0.13281 0 0.25391-0.00391 0.35938-0.015625 0.10156-0.00781 0.16406-0.023437 0.1875-0.046875 0.00781-0.019531 0.00781-0.070312 0-0.15625 0-0.082031-0.00781-0.17188-0.015625-0.26562-0.011719-0.09375-0.023438-0.17969-0.03125-0.26562-0.011719-0.082031-0.011719-0.14062 0-0.17188 0-0.019531-0.042969-0.054687-0.125-0.10938-0.085938-0.0625-0.17188-0.125-0.26562-0.1875-0.09375-0.070312-0.17969-0.14062-0.25-0.20312-0.074219-0.070313-0.09375-0.13281-0.0625-0.1875l0.92188-0.0625c-0.042969-0.16406-0.074219-0.32031-0.09375-0.46875-0.011719-0.13281-0.023438-0.25391-0.03125-0.35938-0.011719-0.11328 0-0.1875 0.03125-0.21875 0.019531-0.019531 0.070312-0.039062 0.15625-0.0625 0.082031-0.019531 0.17969-0.039062 0.29688-0.0625 0.125-0.019531 0.25781-0.03125 0.40625-0.03125 0.15625-0.00781 0.3125-0.023438 0.46875-0.046875 0.36328-0.019531 0.75781-0.035156 1.1875-0.046875 0.082031 0.011719 0.16016 0.027344 0.23438 0.046875 0.0625 0.03125 0.11719 0.070313 0.17188 0.10938 0.050781 0.042969 0.078125 0.10938 0.078125 0.20312 0.00781 0.09375 0.023438 0.21484 0.046875 0.35938 0.03125 0.13672 0.0625 0.27344 0.09375 0.40625 0.03125 0.15625 0.066406 0.32031 0.10938 0.48438l0.70312 0.46875c-0.11719 0.054687-0.22656 0.089844-0.32812 0.10938-0.085938 0.03125-0.16797 0.054688-0.25 0.0625-0.085938 0-0.14062-0.015625-0.17188-0.046875-0.042969-0.03125-0.070313-0.015625-0.078125 0.046875-0.011719 0.054688-0.023438 0.11719-0.03125 0.1875v0.3125c0.125 0.0625 0.21875 0.125 0.28125 0.1875 0.050781 0.042969 0.066406 0.085938 0.046875 0.125-0.023437 0.042969-0.10938 0.0625-0.26562 0.0625-0.074219 0.011719-0.13281 0.042969-0.17188 0.09375-0.03125 0.054688-0.054687 0.11719-0.0625 0.1875-0.023437 0.074219-0.03125 0.16406-0.03125 0.26562l-0.15625 0.03125 0.03125 0.8125c0.11328 0.03125 0.22266 0.0625 0.32812 0.09375 0.070312 0.03125 0.14453 0.074219 0.21875 0.125 0.070312 0.042969 0.11719 0.089844 0.14062 0.14062 0 0.0625-0.054687 0.11719-0.15625 0.15625-0.09375 0.03125-0.19922 0.070312-0.3125 0.10938-0.11719 0.03125-0.21875 0.070313-0.3125 0.10938-0.09375 0.03125-0.13672 0.074219-0.125 0.125 0 0.042969 0.035156 0.09375 0.10938 0.15625 0.082031 0.0625 0.17578 0.125 0.28125 0.1875 0.11328 0.054688 0.22266 0.10547 0.32812 0.15625 0.10156 0.042969 0.17969 0.074219 0.23438 0.09375l0.046875-0.03125c0.125-0.15625 0.26953-0.28125 0.4375-0.375 0.17578-0.10156 0.33203-0.21875 0.46875-0.34375l0.015625 0.046875c0.0625 0.011719 0.11719 0.00781 0.17188-0.015625 0.0625-0.007812 0.11719-0.03125 0.17188-0.0625 0.0625-0.039062 0.125-0.09375 0.1875-0.15625 0.14453-0.13281 0.26953-0.28125 0.375-0.4375 0.10156-0.16406 0.20312-0.30078 0.29688-0.40625 0.039063-0.0625 0.066406-0.10156 0.078125-0.125 0.00781-0.03125 0.00781-0.046875 0-0.046875 0-0.00781-0.027344 0.011719-0.078125 0.0625l-0.15625-0.48438c-0.0625 0-0.10938-0.03125-0.14062-0.09375-0.023438-0.0625-0.00781-0.09375 0.046875-0.09375 0.03125 0 0.050781-0.019531 0.0625-0.0625 0.019531-0.039062 0.035156-0.085938 0.046875-0.14062 0.019531-0.0625 0.03125-0.12891 0.03125-0.20312 0.039062-0.007812 0.085938-0.03125 0.14062-0.0625 0.03125-0.019531 0.066406-0.039062 0.10938-0.0625 0.050781-0.019531 0.09375-0.046875 0.125-0.078125 0.00781-0.019531 0.039062-0.050781 0.09375-0.09375 0.0625-0.039063 0.12891-0.09375 0.20312-0.15625 0.070313-0.0625 0.14844-0.12891 0.23438-0.20312 0.09375-0.070312 0.1875-0.14844 0.28125-0.23438 0.20703-0.17578 0.44141-0.375 0.70312-0.59375 0-0.070313 0.0078-0.13281 0.03125-0.1875 0.0078-0.050781 0.01953-0.09375 0.03125-0.125 0.0078-0.03125 0.03125-0.035156 0.0625-0.015625z"/></g></g></svg>
