<?xml version="1.0" encoding="UTF-8"?>
<svg width="4.0404mm" height="2.7894mm" version="1.1" viewBox="0 0 4.0404 2.7894" xmlns="http://www.w3.org/2000/svg"><defs><style>svg{color-scheme:light dark;fill:currentColor}</style></defs><g transform="translate(22.732 -144.83)"><g transform="matrix(.35278 0 0 .35278 -22.825 147.37)"><path d="m0.26562-4.6562c0.09375 0.03125 0.17578 0.0625 0.25 0.09375 0.070313 0.03125 0.14453 0.054688 0.21875 0.0625 0.51953 0.13672 1.0352 0.26172 1.5469 0.375 0.51953 0.11719 1.0391 0.23438 1.5625 0.35938 0.10156 0.03125 0.20312 0.070313 0.29688 0.10938 0.09375 0.042969 0.1875 0.078125 0.28125 0.10938 0.16406 0.054687 0.32812 0.10547 0.48438 0.15625 0.16406 0.054687 0.33594 0.09375 0.51562 0.125 0.13281 0.03125 0.25391 0.027344 0.35938-0.015625 0.11328-0.039062 0.21875-0.125 0.3125-0.25 0.082031-0.082031 0.17969-0.15625 0.29688-0.21875 0.11328-0.0625 0.22656-0.11328 0.34375-0.15625 0.61328-0.25781 1.2266-0.50781 1.8438-0.75 0.625-0.23828 1.25-0.48828 1.875-0.75 0.20703-0.070312 0.41406-0.14844 0.625-0.23438 0.21875-0.082031 0.42969-0.17188 0.64062-0.26562-0.054688 0.40625-0.10547 0.79688-0.15625 1.1719-0.042969 0.36719-0.089844 0.73438-0.14062 1.1094-0.04297 0.28125-0.08594 0.55859-0.125 0.82812-0.04297 0.26172-0.07422 0.52734-0.09375 0.79688-0.01172 0.10547-0.03906 0.18359-0.07813 0.23438-0.04297 0.054687-0.10938 0.10547-0.20312 0.15625-0.57422 0.26172-1.1367 0.52344-1.6875 0.78125-0.55469 0.26172-1.1172 0.53125-1.6875 0.8125-0.13671 0.0625-0.26562 0.14062-0.39062 0.23438s-0.24609 0.1875-0.35938 0.28125c-0.14844 0.11328-0.30469 0.17578-0.46875 0.1875-0.16797 0.007812-0.30859-0.042969-0.42188-0.15625-0.17969-0.1875-0.38281-0.33594-0.60938-0.4375-0.21875-0.09375-0.44922-0.16406-0.6875-0.21875-0.30469-0.070312-0.60938-0.14062-0.92188-0.20312-0.3125-0.070313-0.625-0.14453-0.9375-0.21875-0.0625-0.007813-0.125-0.03125-0.1875-0.0625-0.054688-0.03125-0.09375-0.070313-0.125-0.125-0.35547-0.625-0.71094-1.25-1.0625-1.875-0.34375-0.625-0.6875-1.25-1.0312-1.875-0.023438-0.00781-0.039062-0.023437-0.046875-0.046875 0-0.019531-0.011719-0.0625-0.03125-0.125zm0.078125-0.39062c0.125-0.082031 0.23438-0.14844 0.32812-0.20312 0.10156-0.0625 0.20703-0.12891 0.3125-0.20312 0.050781-0.082031 0.097656-0.17188 0.14062-0.26562 0.050781-0.09375 0.10938-0.19531 0.17188-0.3125 0.09375 0.09375 0.17578 0.17969 0.25 0.25 0.070313 0.074219 0.14844 0.125 0.23438 0.15625 0.070312 0.042969 0.14844 0.074219 0.23438 0.09375 0.09375 0.011719 0.17188 0.00781 0.23438-0.015625 0.53906-0.20703 1.0664-0.28125 1.5781-0.21875 0.50781 0.054687 1.0078 0.21875 1.5 0.5 0.09375 0.054687 0.16406 0.074219 0.21875 0.0625 0.0625-0.00781 0.13281-0.039063 0.21875-0.09375 0.25781-0.16406 0.51953-0.32812 0.78125-0.48438 0.25781-0.15625 0.52344-0.30078 0.79688-0.4375 0.09375-0.050781 0.20703-0.085938 0.34375-0.10938 0.14453-0.019531 0.27344-0.015625 0.39062 0.015625 0.38281 0.09375 0.71875 0.074219 1-0.0625 0.28906-0.13281 0.56641-0.33203 0.82812-0.59375 0.03125-0.039062 0.054688-0.082031 0.078125-0.125 0.03125-0.050781 0.0625-0.09375 0.09375-0.125 0.0078 0.011719 0.02344 0.023438 0.04687 0.03125 0.01953 0 0.03516 0.00781 0.04687 0.015625 0.03125 0.09375 0.0625 0.19531 0.09375 0.29688l0.09375 0.28125c0.05078-0.019531 0.10938-0.039062 0.17188-0.0625 0.0625-0.019531 0.11328-0.03125 0.15625-0.03125 0.07031 0.054688 0.14844 0.10938 0.23438 0.17188 0.08203 0.054687 0.17188 0.10938 0.26562 0.17188-0.21094 0.09375-0.42969 0.19531-0.65625 0.29688-0.21875 0.09375-0.4375 0.1875-0.65625 0.28125-0.42968 0.16797-0.85936 0.33984-1.2969 0.51562-0.42969 0.17969-0.85547 0.35938-1.2812 0.54688-0.24219 0.09375-0.48438 0.19531-0.73438 0.29688-0.24219 0.10547-0.49219 0.19531-0.75 0.26562-0.17969 0.0625-0.35156 0.089844-0.51562 0.078125-0.16797-0.019531-0.34375-0.066406-0.53125-0.14062-0.24219-0.09375-0.48047-0.16406-0.71875-0.21875-0.23047-0.050781-0.46875-0.097656-0.71875-0.14062-0.49219-0.09375-0.98047-0.17578-1.4688-0.25-0.49219-0.070312-0.99609-0.14844-1.5156-0.23438z"/></g></g></svg>
