<?xml version="1.0" encoding="UTF-8"?>
<svg width="4.4979mm" height="2.2931mm" version="1.1" viewBox="0 0 4.4979 2.2931" xmlns="http://www.w3.org/2000/svg"><defs><style>svg{fill:currentColor}</style></defs><g transform="translate(-49.944 -117.74)"><g transform="matrix(.35278 0 0 .35278 49.872 120.11)"><path d="m12.891-0.70312c0.03125 0.042969 0.04687 0.09375 0.04687 0.15625 0 0.054687 0.0039 0.10547 0.01563 0.15625-0.01172 0.011719-0.02344 0.027344-0.03125 0.046875-0.01172 0.011719-0.02734 0.027344-0.04687 0.046875-0.05469-0.03125-0.10547-0.0625-0.15625-0.09375-0.054693-0.039063-0.10547-0.078125-0.15626-0.10938-0.10547-0.10156-0.19922-0.20703-0.28125-0.3125-0.085938-0.11328-0.18359-0.21875-0.29688-0.3125-0.042969-0.03125-0.10938-0.050781-0.20312-0.0625-0.08594-0.00781-0.15234 0-0.20312 0.03125-0.375 0.25-0.78125 0.42969-1.2188 0.53125-0.4375 0.09375-0.875 0.16797-1.3125 0.21875-0.54297 0.0625-1.0859 0.11719-1.625 0.15625-0.54297 0.03125-1.0859 0.03125-1.625 0-0.52344-0.019531-1.0117-0.11328-1.4688-0.28125-0.44922-0.17578-0.85547-0.41016-1.2188-0.70312-0.36719-0.30078-0.67969-0.65625-0.9375-1.0625-0.25-0.41406-0.43359-0.88281-0.54688-1.4062-0.03125-0.070313-0.054688-0.13281-0.0625-0.1875-0.14844 0.10547-0.25781 0.23047-0.32812 0.375-0.074219 0.13672-0.14062 0.28125-0.20312 0.4375-0.054688 0.15625-0.10547 0.3125-0.15625 0.46875-0.054688 0.15625-0.13672 0.30859-0.25 0.45312-0.15625-0.83203-0.015625-1.5469 0.42188-2.1406 0.20703-0.30078 0.42969-0.58594 0.67188-0.85938 0.25-0.26953 0.49219-0.55469 0.73438-0.85938h-0.5625c-0.19922-0.00781-0.38672-0.00781-0.5625 0-0.1875 0.023437-0.375 0.046875-0.5625 0.078125-0.17969 0.023438-0.35938 0.039062-0.54688 0.046875 0-0.039063-0.007812-0.070313-0.015625-0.09375 0.019531-0.007813 0.035156-0.019531 0.046875-0.03125 0.019531-0.019531 0.039062-0.03125 0.0625-0.03125 1.1562-0.33203 2.3125-0.54688 3.4688-0.64062s2.3281-0.019531 3.5156 0.21875c0.4375 0.09375 0.85938 0.23047 1.2656 0.40625 0.41406 0.16797 0.81641 0.375 1.2031 0.625 0.11328 0.09375 0.21875 0.21094 0.3125 0.34375 0.09375 0.125 0.1875 0.25 0.28125 0.375 0.32031 0.46094 0.64062 0.92188 0.95312 1.3906 0.32031 0.46875 0.64062 0.94531 0.95312 1.4219 0.11328 0.1875 0.21875 0.38672 0.3125 0.59375 0.10156 0.19922 0.20703 0.40234 0.3125 0.60938zm-6.7031-4.0938c-0.09375 0-0.18359 0.023437-0.26562 0.0625-0.085937 0.03125-0.15625 0.085937-0.21875 0.15625-0.054687 0.0625-0.10156 0.13672-0.14062 0.21875-0.03125 0.074219-0.046875 0.15234-0.046875 0.23438 0.019531 0.17969 0.09375 0.32812 0.21875 0.45312 0.13281 0.125 0.28516 0.18359 0.45312 0.17188 0.17578 0 0.32812-0.0625 0.45312-0.1875s0.1875-0.27344 0.1875-0.45312c-0.011719-0.17578-0.078125-0.32812-0.20312-0.45312-0.125-0.13281-0.27344-0.20312-0.4375-0.20312zm4.25 3.1875c0.10156-0.11328 0.17188-0.25 0.20312-0.40625 0.03906-0.15625 0.01563-0.3125-0.07813-0.46875-0.085933-0.14453-0.18359-0.27344-0.29687-0.39062-0.10547-0.11328-0.21875-0.21094-0.34375-0.29688-0.125-0.09375-0.26172-0.17969-0.40625-0.26562-0.13672-0.082031-0.27734-0.16406-0.42188-0.25-0.054688 0.58594-0.21484 1.0742-0.48438 1.4688-0.26172 0.38672-0.66797 0.65625-1.2188 0.8125-0.21875 0.0625-0.44531 0.09375-0.67188 0.09375-0.21875-0.007812-0.43359-0.046875-0.64062-0.10938-0.21094-0.070313-0.40234-0.17188-0.57812-0.29688-0.17969-0.125-0.32812-0.28125-0.45312-0.46875-0.36719-0.5-0.52734-0.99219-0.48438-1.4844 0.039062-0.48828 0.24219-0.99219 0.60938-1.5156-0.21094-0.00781-0.40625-0.019531-0.59375-0.03125-0.17969-0.00781-0.35547-0.00781-0.53125 0-0.35547 0.011719-0.64062 0.10938-0.85938 0.29688-0.21875 0.17969-0.38672 0.43359-0.5 0.76562-0.11719 0.33594-0.16406 0.64844-0.14062 0.9375 0.019531 0.28125 0.082031 0.54297 0.1875 0.78125 0.11328 0.23047 0.25391 0.4375 0.42188 0.625 0.17578 0.17969 0.35938 0.33594 0.54688 0.46875 0.3125 0.21094 0.64453 0.37109 1 0.48438 0.35156 0.11719 0.71875 0.19531 1.0938 0.23438 0.32031 0.042969 0.64453 0.074219 0.96875 0.09375 0.32031 0.023438 0.64062 0.023438 0.95312 0 0.32031-0.019531 0.63281-0.0625 0.9375-0.125 0.3125-0.070312 0.61328-0.17188 0.90625-0.29688 0.33203-0.14453 0.625-0.36328 0.875-0.65625z"/></g></g></svg>
