<?xml version="1.0" encoding="UTF-8"?>
<svg width="3.01mm" height="2.9933mm" version="1.1" viewBox="0 0 3.01 2.9933" xmlns="http://www.w3.org/2000/svg"><defs><style>svg{color-scheme:light dark;fill:currentColor}</style></defs><g transform="translate(-177.44 -75.135)"><g transform="matrix(.35278 0 0 .35278 177.36 77.764)"><path d="m8.7656-7.4531c-0.24219 0.39844-0.46094 0.75781-0.65625 1.0781-0.085937 0.13672-0.16797 0.27344-0.25 0.40625-0.085937 0.13672-0.15625 0.25781-0.21875 0.35938-0.0625 0.10547-0.12109 0.19531-0.17188 0.26562-0.042969 0.074219-0.070312 0.12109-0.078125 0.14062 0.03125-0.00781 0.11328-0.015625 0.25-0.015625 0.13281-0.00781 0.27344-0.023438 0.42188-0.046875 0.1875-0.00781 0.39453-0.019531 0.625-0.03125l-3.4219 1.9531 1.0781 0.5-3.5 1.25 1.375-1.1562-0.51562-0.35938 2.5-3.9531-0.3125 1.4844zm-1.9531 4.7031c0.0625 0.36719 0.054688 0.73047-0.015625 1.0938-0.074219 0.35547-0.19922 0.6875-0.375 1-0.17969 0.3125-0.40234 0.58984-0.67188 0.82812-0.27344 0.25-0.58984 0.44531-0.95312 0.59375-0.42969 0.1875-0.85938 0.27344-1.2969 0.26562-0.4375-0.011719-0.85156-0.10156-1.2344-0.26562-0.38672-0.16797-0.74219-0.40625-1.0625-0.71875-0.3125-0.30078-0.55469-0.66406-0.71875-1.0938-0.17969-0.42578-0.26172-0.85938-0.25-1.2969 0.007813-0.4375 0.09375-0.84766 0.25-1.2344 0.16406-0.39453 0.39844-0.75 0.70312-1.0625 0.3125-0.3125 0.67578-0.55469 1.0938-0.73438 0.42578-0.16406 0.85156-0.24219 1.2812-0.23438 0.42578 0.011719 0.83594 0.089844 1.2344 0.23438l-0.875 1.4375c-0.10547-0.25-0.17188-0.49219-0.20312-0.73438-0.03125-0.25-0.03125-0.47266 0-0.67188-0.0625 0.33594-0.17969 0.60547-0.34375 0.8125-0.15625 0.19922-0.33594 0.32422-0.53125 0.375-0.1875 0.054688-0.38281 0.027344-0.57812-0.078125-0.19922-0.11328-0.36719-0.3125-0.5-0.59375 0.13281 0.28125 0.19141 0.5625 0.17188 0.84375-0.023438 0.28125-0.10938 0.52734-0.26562 0.73438-0.14844 0.19922-0.33984 0.35156-0.57812 0.45312-0.24219 0.09375-0.5 0.10938-0.78125 0.046875 0.28125 0.0625 0.51562 0.17969 0.70312 0.34375 0.1875 0.16797 0.3125 0.35938 0.375 0.57812 0.070313 0.21875 0.070313 0.44922 0 0.6875-0.0625 0.24219-0.19922 0.46875-0.40625 0.6875 0.22656-0.14453 0.45312-0.21094 0.67188-0.20312 0.22656 0 0.42188 0.0625 0.57812 0.1875 0.16406 0.11719 0.28906 0.28906 0.375 0.51562 0.09375 0.22656 0.11719 0.49219 0.078125 0.79688 0.039062-0.30469 0.14453-0.54688 0.3125-0.73438 0.16406-0.17578 0.36328-0.28516 0.59375-0.32812 0.22656-0.050781 0.46094-0.023438 0.70312 0.078125 0.23828 0.09375 0.45703 0.26953 0.65625 0.53125-0.19922-0.26172-0.30469-0.50781-0.3125-0.75 0-0.23828 0.066406-0.44141 0.20312-0.60938 0.13281-0.17578 0.32812-0.30078 0.57812-0.375 0.25781-0.070312 0.55469-0.070312 0.89062 0-0.21875-0.039062-0.43359-0.12891-0.64062-0.26562-0.21094-0.13281-0.41406-0.3125-0.60938-0.53125l1.4844-0.51562zm-0.20312-0.73438c0.0625 0.14844 0.11328 0.29297 0.15625 0.4375l-0.21875-0.078125-0.5625-0.26562 0.53125-0.29688c0.019531 0.042969 0.035156 0.078125 0.046875 0.10938 0.019531 0.023437 0.035156 0.054687 0.046875 0.09375z"/></g></g></svg>
