<?xml version="1.0" encoding="UTF-8"?>
<svg width="4.4838mm" height="2.723mm" version="1.1" viewBox="0 0 4.4838 2.723" xmlns="http://www.w3.org/2000/svg"><defs><style>svg{fill:currentColor}</style></defs><g transform="translate(-327.9 -101.37)"><g transform="matrix(.35278 0 0 .35278 327.85 103.84)"><path d="m4.2969-4.6719c-0.13672-0.09375-0.27344-0.17578-0.40625-0.25-0.125-0.082031-0.25-0.17188-0.375-0.26562-0.23047-0.14453-0.4375-0.14062-0.625 0.015625-0.10547 0.10547-0.21094 0.21875-0.3125 0.34375-0.10547 0.11719-0.19531 0.24219-0.26562 0.375-0.03125 0.09375-0.070312 0.1875-0.10938 0.28125-0.03125 0.085937-0.074219 0.17188-0.125 0.26562-0.042969 0.09375-0.10156 0.18359-0.17188 0.26562-0.0625 0.074219-0.14844 0.14062-0.25 0.20312 0.1875-0.14453 0.36719-0.23828 0.54688-0.28125 0.1875-0.039062 0.375-0.046875 0.5625-0.015625 0.1875 0.023437 0.36719 0.074219 0.54688 0.15625 0.1875 0.085937 0.375 0.17969 0.5625 0.28125-0.011719-0.050781-0.023438-0.085937-0.03125-0.10938-0.011719-0.03125-0.015625-0.0625-0.015625-0.09375-0.023437-0.03125-0.039063-0.066406-0.046875-0.10938 0.019531-0.03125 0.046875-0.046875 0.078125-0.046875 0.35156-0.03125 0.64453 0.058594 0.875 0.26562 0.0625 0.0625 0.11719 0.10156 0.17188 0.10938 0.050781 0.011719 0.097656 0.011719 0.14062 0 0.050781-0.019531 0.097656-0.039062 0.14062-0.0625 0.050781-0.03125 0.10156-0.054688 0.15625-0.078125 0.070312-0.050781 0.14453-0.10938 0.21875-0.17188 0.082031-0.070312 0.11328-0.17188 0.09375-0.29688-0.023438-0.11328-0.042969-0.22656-0.0625-0.34375-0.011719-0.11328-0.039062-0.22266-0.078125-0.32812-0.011719-0.0625-0.039063-0.11328-0.078125-0.15625-0.03125-0.050781-0.074219-0.097656-0.125-0.14062-0.054688-0.039063-0.09375-0.085937-0.125-0.14062-0.023438-0.0625-0.039062-0.12891-0.046875-0.20312-0.011719-0.070313-0.011719-0.14062 0-0.20312 0.007813-0.070312 0.035156-0.12891 0.078125-0.17188 0.019531-0.039063 0.03125-0.082031 0.03125-0.125 0.007812-0.039063 0.023438-0.078125 0.046875-0.10938 0.019531-0.050781 0.03125-0.10156 0.03125-0.15625 0.00781-0.0625 0.015625-0.125 0.015625-0.1875 0.0625-0.28125 0.16406-0.48828 0.3125-0.625 0.15625-0.13281 0.37891-0.21094 0.67188-0.23438 0.28906 0 0.52344 0.0625 0.70312 0.1875 0.17578 0.125 0.28906 0.33594 0.34375 0.625 0.03125 0.16797 0.054688 0.33984 0.078125 0.51562 0.019531 0.16797 0.035156 0.33984 0.046875 0.51562 0.007812 0.054687-0.007812 0.10938-0.046875 0.17188-0.03125 0.054688-0.0625 0.10156-0.09375 0.14062-0.09375 0.09375-0.15625 0.21094-0.1875 0.34375-0.03125 0.125-0.042969 0.25781-0.03125 0.39062 0.00781 0.13672 0.046875 0.26562 0.10938 0.39062 0.070312 0.125 0.16406 0.23047 0.28125 0.3125-0.011719 0.03125-0.03125 0.070313-0.0625 0.10938-0.023438 0.03125-0.054688 0.074219-0.09375 0.125 0.15625-0.070312 0.3125-0.14453 0.46875-0.21875 0.15625-0.070312 0.3125-0.12891 0.46875-0.17188 0.16406-0.050781 0.33203-0.085937 0.5-0.10938 0.16406-0.019531 0.33594-0.019531 0.51562 0-0.011719 0.042969-0.023437 0.085938-0.03125 0.125 0 0.042969-0.011719 0.089844-0.03125 0.14062 0.11328-0.050781 0.21875-0.10938 0.3125-0.17188 0.10156-0.0625 0.21094-0.10938 0.32812-0.14062 0.09375-0.050781 0.1875-0.078125 0.28125-0.078125 0.10156 0 0.20312 0.011719 0.29688 0.03125 0.09375 0.023438 0.1875 0.054688 0.28125 0.09375 0.09375 0.03125 0.1875 0.070312 0.28125 0.10938 0.11328 0.042969 0.22656 0.078125 0.34375 0.10938 0.125 0.023438 0.26562 0.046875 0.42188 0.078125-0.03125-0.039063-0.05469-0.070313-0.0625-0.09375 0-0.019531-0.0078-0.03125-0.01563-0.03125-0.3125-0.019531-0.5625-0.10156-0.75-0.25-0.17969-0.15625-0.3125-0.37891-0.40625-0.67188-0.04297-0.13281-0.125-0.25781-0.25-0.375-0.11719-0.11328-0.23047-0.22266-0.34375-0.32812-0.09375-0.09375-0.21094-0.14453-0.34375-0.15625-0.125-0.00781-0.25 0.03125-0.375 0.125-0.11719 0.085937-0.23047 0.16797-0.34375 0.25-0.10546 0.074219-0.22656 0.15234-0.35937 0.23438-0.011719 0.011719-0.03125 0.015625-0.0625 0.015625s-0.0625 0.00781-0.09375 0.015625c0-0.070312-0.023438-0.13281-0.0625-0.1875-0.042969-0.0625-0.089844-0.125-0.14062-0.1875-0.042969-0.0625-0.078125-0.125-0.10938-0.1875-0.023438-0.070312-0.011719-0.16016 0.03125-0.26562 0.070312-0.14453 0.15625-0.25 0.25-0.3125 0.10156-0.070313 0.23438-0.11719 0.39062-0.14062 0.082031-0.00781 0.16406-0.023438 0.25-0.046875 0.09375-0.019531 0.1875-0.035156 0.28125-0.046875 0.33203-0.0625 0.65625 0.015625 0.96875 0.23438 0.28125 0.23047 0.5625 0.44531 0.84375 0.64062 0.28125 0.1875 0.5625 0.38672 0.84375 0.59375 0.14453 0.11719 0.27344 0.24609 0.39062 0.39062 0.125 0.14844 0.25 0.29297 0.375 0.4375 0.17578 0.16797 0.17578 0.33594 0 0.5-0.17969 0.17969-0.36719 0.32812-0.5625 0.45312-0.35547 0.21875-0.71875 0.41406-1.0938 0.57812-0.17969 0.085937-0.37109 0.14844-0.57812 0.1875-0.19922 0.042969-0.40234 0.042969-0.60938 0-0.14844-0.039063-0.27344-0.035156-0.375 0.015625-0.09375 0.042969-0.16406 0.15625-0.20312 0.34375-0.0625 0.25-0.14844 0.50781-0.25 0.76562-0.09375 0.25-0.1875 0.50781-0.28125 0.76562-0.042969 0.10547-0.078125 0.20703-0.10938 0.3125-0.023438 0.11328-0.054688 0.24219-0.09375 0.39062-0.34375 0.007813-0.69922 0.03125-1.0625 0.0625-0.36719 0.039063-0.73047 0.0625-1.0938 0.0625-0.28125 0-0.5625-0.015625-0.84375-0.046875-0.27344-0.03125-0.54688-0.0625-0.82812-0.09375-0.125-0.011719-0.23047-0.03125-0.3125-0.0625-0.085937-0.03125-0.15234-0.078125-0.20312-0.14062-0.042969-0.0625-0.074219-0.14062-0.09375-0.23438-0.011719-0.09375-0.011719-0.21094 0-0.35938 0.09375 0.0625 0.1875 0.13281 0.28125 0.20312 0.09375 0.0625 0.17969 0.125 0.26562 0.1875 0.019531-0.023438 0.035156-0.042969 0.046875-0.0625-0.074219-0.085938-0.15234-0.17188-0.23438-0.26562-0.24219-0.1875-0.42188-0.39844-0.54688-0.64062-0.11719-0.23828-0.19922-0.5-0.25-0.78125-0.042969-0.20703-0.10547-0.34375-0.1875-0.40625-0.085938-0.0625-0.22656-0.078125-0.42188-0.046875-0.21875 0.0625-0.42969 0.078125-0.625 0.046875-0.19922-0.039062-0.39844-0.10938-0.59375-0.20312-0.19922-0.09375-0.40234-0.19141-0.60938-0.29688-0.19922-0.10156-0.39844-0.21094-0.59375-0.32812-0.0625-0.03125-0.12109-0.070313-0.17188-0.125-0.054687-0.050781-0.10547-0.097656-0.15625-0.14062-0.0625-0.09375-0.10938-0.16406-0.14062-0.21875-0.03125-0.0625-0.046875-0.11719-0.046875-0.17188 0.007813-0.050781 0.03125-0.10156 0.0625-0.15625 0.039063-0.0625 0.085937-0.14062 0.14062-0.23438 0.23828-0.33203 0.50781-0.61719 0.8125-0.85938 0.3125-0.25 0.64453-0.47266 1-0.67188 0.070312-0.03125 0.14062-0.066406 0.20312-0.10938 0.070313-0.050781 0.13281-0.10938 0.1875-0.17188 0.16406-0.16406 0.33594-0.25781 0.51562-0.28125 0.1875-0.03125 0.39062-0.03125 0.60938 0 0.0625 0.011719 0.125 0.027344 0.1875 0.046875 0.0625 0.011719 0.12891 0.023437 0.20312 0.03125 0.25781 0.0625 0.42188 0.19531 0.48438 0.39062 0.070313 0.19922 0.035156 0.40625-0.10938 0.625-0.042969 0.042969-0.074219 0.085938-0.09375 0.125-0.023438 0.03125-0.039062 0.058594-0.046875 0.078125z"/></g></g></svg>
