<?xml version="1.0" encoding="UTF-8"?>
<svg width="2.5346mm" height="2.9188mm" version="1.1" viewBox="0 0 2.5346 2.9188" xmlns="http://www.w3.org/2000/svg"><defs><style>svg{fill:currentColor}</style></defs><g transform="translate(93.64 -69.373)"><g transform="matrix(.35278 0 0 .35278 -93.763 71.88)"><path d="m7.3906-3.1094c0.11328 0.15625 0.16016 0.28125 0.14062 0.375-0.011719 0.085937-0.089844 0.17188-0.23438 0.26562-0.11719 0.0625-0.18359 0.13281-0.20312 0.20312-0.023438 0.074219-0.00781 0.17969 0.046875 0.3125 0.039063 0.085937 0.046875 0.18359 0.015625 0.29688-0.023438 0.10547-0.054688 0.21094-0.09375 0.3125-0.011719 0.074219-0.042969 0.15234-0.09375 0.23438-0.042969 0.085937-0.074219 0.16406-0.09375 0.23438 0 0.23047-0.054688 0.40625-0.15625 0.53125-0.10547 0.125-0.27344 0.1875-0.5 0.1875-0.3125 0-0.63281-0.007812-0.95312-0.03125-0.3125-0.03125-0.63281-0.0625-0.95312-0.09375-0.054688 0-0.10547-0.003906-0.15625-0.015625-0.042969-0.007813-0.085938-0.015625-0.125-0.015625 0 0-0.00781 0.007812-0.015625 0.015625l-0.03125 0.03125c0.14453 0.09375 0.28516 0.18359 0.42188 0.26562 0.13281 0.09375 0.26953 0.1875 0.40625 0.28125-0.042969 0.125-0.089844 0.25-0.14062 0.375-0.054687 0.125-0.10547 0.24219-0.15625 0.35938-0.023437 0.03125-0.054687 0.0625-0.09375 0.09375-0.03125 0.03125-0.0625 0.046875-0.09375 0.046875-0.59375 0.03125-1.1836 0.003906-1.7656-0.078125-0.57422-0.085937-1.1523-0.21094-1.7344-0.375 0.15625-0.4375 0.28906-0.84766 0.40625-1.2344 0.070313-0.25 0.12891-0.50391 0.17188-0.76562 0.050781-0.25-0.015625-0.48438-0.20312-0.70312-0.34375-0.375-0.58594-0.77344-0.71875-1.2031-0.125-0.42578-0.16406-0.84375-0.10938-1.25 0.050781-0.41406 0.20312-0.8125 0.45312-1.1875s0.58594-0.69531 1.0156-0.96875c0.33203-0.21875 0.71094-0.36328 1.1406-0.4375 0.42578-0.070313 0.84766-0.078125 1.2656-0.015625 0.42578 0.054688 0.82031 0.16797 1.1875 0.34375 0.375 0.16797 0.67578 0.39062 0.90625 0.67188 0.17578 0.23047 0.30078 0.46484 0.375 0.70312 0.082031 0.24219 0.10938 0.49219 0.078125 0.75-0.042969 0.19922-0.042969 0.375 0 0.53125 0.039063 0.14844 0.11719 0.29297 0.23438 0.4375 0.0625 0.074219 0.11719 0.15625 0.17188 0.25 0.0625 0.09375 0.125 0.18359 0.1875 0.26562zm-3.1406-1.2344c0.09375 0.011719 0.1875 0.023438 0.28125 0.03125 0.09375 0 0.17969-0.019531 0.26562-0.0625 0.125-0.0625 0.24219-0.13281 0.35938-0.21875 0.125-0.082031 0.25391-0.15625 0.39062-0.21875 0.1875-0.11328 0.30078-0.25781 0.34375-0.4375 0.050781-0.17578 0.015625-0.35938-0.10938-0.54688-0.25-0.36328-0.60156-0.61719-1.0469-0.76562-0.375-0.11328-0.74609-0.14453-1.1094-0.09375-0.35547 0.042969-0.6875 0.13672-1 0.28125-0.30469 0.14844-0.57812 0.33594-0.82812 0.5625-0.24219 0.21875-0.43359 0.44531-0.57812 0.67188-0.19922 0.32422-0.29688 0.65234-0.29688 0.98438 0.007813 0.32422 0.0625 0.65234 0.15625 0.98438 0.00781 0.054687 0.035156 0.10156 0.078125 0.14062 0.039062 0.042969 0.082031 0.078125 0.125 0.10938 0.050781 0.011719 0.10938 0.023437 0.17188 0.03125 0.0625 0.011719 0.11719 0.00781 0.17188-0.015625 0.019531 0 0.035156-0.03125 0.046875-0.09375 0.00781-0.070312 0.00781-0.13281 0-0.1875-0.054687-0.25-0.058594-0.47656-0.015625-0.6875 0.050781-0.20703 0.17188-0.38281 0.35938-0.53125 0.125-0.09375 0.26562-0.16406 0.42188-0.21875 0.16406-0.050781 0.33594-0.11719 0.51562-0.20312-0.042969 0.074219-0.078125 0.13672-0.10938 0.1875-0.023438 0.042969-0.046875 0.10156-0.078125 0.17188 0.10156-0.050781 0.19141-0.09375 0.26562-0.125 0.070312-0.039062 0.14844-0.070312 0.23438-0.09375 0.050781-0.00781 0.11328-0.00781 0.1875 0 0.070313 0 0.14062 0.00781 0.20312 0.015625 0.03125 0.011719 0.066406 0.015625 0.10938 0.015625 0.039063 0 0.078125 0.011719 0.10938 0.03125 0.03125 0.011719 0.046875 0.03125 0.046875 0.0625 0.00781 0.03125-0.00781 0.078125-0.046875 0.14062 0.070312 0.023437 0.14062 0.042969 0.20312 0.0625 0.0625 0.011719 0.11719 0.015625 0.17188 0.015625zm2.1875-0.03125c-0.17969 0.074219-0.34375 0.14844-0.5 0.21875-0.15625 0.0625-0.32422 0.13672-0.5 0.21875 0.17578 0.085938 0.34375 0.16406 0.5 0.23438 0.15625 0.0625 0.32031 0.13672 0.5 0.21875z"/></g></g></svg>
